<?xml version="1.0" encoding="UTF-8" standalone="no"?>
<!DOCTYPE svg PUBLIC "-//W3C//DTD SVG 1.1//EN" "http://www.w3.org/Graphics/SVG/1.1/DTD/svg11.dtd">
<svg width="100%" height="100%" viewBox="0 0 150 150" version="1.1" xmlns="http://www.w3.org/2000/svg" xmlns:xlink="http://www.w3.org/1999/xlink" xml:space="preserve" xmlns:serif="http://www.serif.com/" style="fill-rule:evenodd;clip-rule:evenodd;stroke-linejoin:round;stroke-miterlimit:1.41421;">
    <path class="a_logo_path" d="M105.666,30.048L147.278,71.659C149.36,73.742 149.36,77.124 147.278,79.207L79.347,147.138C77.264,149.221 73.882,149.221 71.799,147.138L28.511,103.851C32.266,101.094 35.956,98.238 39.588,95.3C45.549,90.573 51.406,85.64 56.956,81.015L73.297,81.015C73.297,81.838 73.297,82.557 73.194,83.276C71.55,94.067 71.241,104.96 72.577,115.751C73.708,124.178 75.969,132.194 83.574,137.435L86.554,137.435C89.021,136.305 90.459,134.352 91.179,131.783C92.001,128.803 92.412,125.822 92.515,122.739C93.029,107.941 91.179,93.553 85.321,79.679C90.973,78.446 96.317,77.212 101.867,74.952C101.964,74.708 103.612,72.365 104.548,70.15C105.373,68.196 105.645,66.343 103.807,66.118L103.819,66.113C103.848,65.951 103.842,65.966 103.807,66.118C103.343,66.303 89.6,71.778 81.518,72.485C82.546,66.627 84.19,61.283 85.629,55.939C86.451,53.164 87.685,50.903 89.637,48.745C95.182,42.69 100.623,36.531 105.666,30.048ZM80.182,81.015C77.716,93.861 77.716,106.81 78.949,119.862C79.36,123.767 80.182,127.57 82.135,130.961C83.06,132.708 83.985,134.763 86.554,134.866C88.815,133.427 89.226,131.064 89.329,128.803C90.562,112.154 87.787,96.122 80.182,81.015ZM2.857,73.066C10.341,74.733 17.909,76.089 25.509,77.315C32.189,78.446 38.869,79.165 45.755,80.09C45.446,80.604 45.241,81.015 45.035,81.22C38.263,87.561 31.346,93.703 24.185,99.524L3.868,79.207C2.208,77.547 1.871,75.062 2.857,73.066ZM37.107,38.42C48.737,44.07 60.336,52.746 66.206,60.358C61.787,64.675 57.368,68.991 52.435,73.616C37.48,72.281 22.346,70.857 7.372,68.155L37.107,38.42ZM65.281,73.513C68.878,73.513 72.064,73.513 75.866,73.513C74.941,70.635 73.502,68.991 72.064,67.038L65.281,73.513ZM80.384,56.863L76.266,60.325L78.946,65.317L80.384,56.863ZM42.212,33.315L71.799,3.728C73.882,1.646 77.264,1.646 79.347,3.728L95.502,19.884C92.828,24.748 90.311,29.716 87.89,34.769C83.779,43.298 76.277,48.951 70.419,56.145C63.842,48.643 56.956,42.271 48.94,37.235C46.72,35.835 44.477,34.529 42.212,33.315Z" style="fill:rgb(0,156,222);"/>
</svg>
