<?xml version="1.0" encoding="UTF-8" standalone="no"?>
<!DOCTYPE svg PUBLIC "-//W3C//DTD SVG 1.1//EN" "http://www.w3.org/Graphics/SVG/1.1/DTD/svg11.dtd">
<svg width="100%" height="100%" viewBox="0 0 150 150" version="1.1" xmlns="http://www.w3.org/2000/svg" xmlns:xlink="http://www.w3.org/1999/xlink" xml:space="preserve" xmlns:serif="http://www.serif.com/" style="fill-rule:evenodd;clip-rule:evenodd;stroke-linejoin:round;stroke-miterlimit:1.41421;">
    <g transform="matrix(0.839834,0,0,0.829806,-182.889,60.9642)">
        <path d="M220,-3.7C225.2,-15 235.5,-17.9 246.3,-19.1C272.1,-22 296.6,-17.7 318.8,-3.7C326.6,1.2 333.3,7.4 339.7,14.7C345.4,7.7 352.7,2.2 356.7,-6.1C363.6,-20.5 371.3,-34.2 381.3,-46.7C383.9,-49.9 386.7,-52.9 390.3,-55.1C391.5,-55.1 392.7,-55.1 393.9,-55.1C395.8,-53.2 395.6,-50.9 395,-48.5C392.3,-37.3 386.2,-27.9 379.8,-18.6C373.4,-9.3 366,-0.8 358.4,7.5C356.5,9.6 355.3,11.8 354.5,14.5C353.1,19.7 351.5,24.9 350.5,30.6C358.5,29.9 365.7,27.5 372.2,24.4C384.48,16.647 380.924,27.344 378.2,28.9C376.8,29.7 374.989,31.09 370.3,33C364.9,35.2 359.7,36.4 354.2,37.6C359.9,51.1 361.7,65.1 361.2,79.5C361.1,82.5 360.7,85.4 359.9,88.3C359.2,90.8 357.8,92.7 355.4,93.8C354.4,93.8 353.5,93.8 352.5,93.8C345.1,88.7 342.9,80.9 341.8,72.7C340.5,62.2 340.8,51.6 342.4,41.1C342.5,40.4 342.5,39.7 342.5,38.9C337.2,38.9 332.2,38.9 326.6,38.9C321.2,43.4 315.5,48.2 309.7,52.8C294,65.5 277.2,76.6 258.7,84.9C251.1,88.3 243.3,91 234.9,91.6C234.2,91.4 233.5,91.5 233,92C232.4,92.1 231.9,92.1 231.3,92.2C231.3,91.8 231.3,91.4 231.3,91C243.2,89.3 253.9,84.3 264.2,78.3C282.8,67.4 299.3,53.8 315,39.1C315.2,38.9 315.4,38.5 315.7,38C309,37.1 302.5,36.4 296,35.3C277.4,32.3 259,28.5 241.6,21.1C237.8,19.5 234.2,17.4 230.7,15.2C226.1,12.2 222.794,7.855 219.894,3.255C218.724,0.835 218.874,-1.254 220,-3.7ZM335.6,18.8C329.2,10.5 315.8,0.9 303.2,-4.4C283.9,-12.5 263.6,-13.6 243.1,-12C238.6,-11.6 234.2,-10.5 230.1,-8.5C223.3,-5 222.1,1.3 227.3,6.9C231.3,11.3 236.4,14.1 241.8,16.3C267.8,26.6 295.3,29.3 322.2,31.7C327,27.2 331.3,23 335.6,18.8ZM349.2,38.9C346.8,51.4 346.8,64 348,76.7C348.4,80.5 349.2,84.2 351.1,87.5C352,89.2 352.9,91.2 355.4,91.3C357.6,89.9 358,87.6 358.1,85.4C359.3,69.2 356.6,53.6 349.2,38.9ZM370.3,-22.1C378.4,-31.7 386.9,-41 392.1,-52.8C381.1,-45.3 376.2,-33.3 370.3,-22.1ZM334.7,31.6C338.2,31.6 341.3,31.6 345,31.6C344.1,28.8 342.7,27.2 341.3,25.3" style="fill:white;fill-opacity:0.35;fill-rule:nonzero;"/>
    </g>
</svg>
