<?xml version="1.0" encoding="UTF-8" standalone="no"?>
<!DOCTYPE svg PUBLIC "-//W3C//DTD SVG 1.1//EN" "http://www.w3.org/Graphics/SVG/1.1/DTD/svg11.dtd">
<svg width="100%" height="100%" viewBox="0 0 480 149" version="1.1" xmlns="http://www.w3.org/2000/svg" xmlns:xlink="http://www.w3.org/1999/xlink" xml:space="preserve" xmlns:serif="http://www.serif.com/" style="fill-rule:evenodd;clip-rule:evenodd;stroke-linejoin:round;stroke-miterlimit:1.41421;">
    <g transform="matrix(1,0,0,1,-220,55)">
        <path d="M220,-3.7C225.2,-15 235.5,-17.9 246.3,-19.1C272.1,-22 296.6,-17.7 318.8,-3.7C326.6,1.2 333.3,7.4 339.7,14.7C345.4,7.7 352.7,2.2 356.7,-6.1C363.6,-20.5 371.3,-34.2 381.3,-46.7C383.9,-49.9 386.7,-52.9 390.3,-55.1C391.5,-55.1 392.7,-55.1 393.9,-55.1C395.8,-53.2 395.6,-50.9 395,-48.5C392.3,-37.3 386.2,-27.9 379.8,-18.6C373.4,-9.3 366,-0.8 358.4,7.5C356.5,9.6 355.3,11.8 354.5,14.5C353.1,19.7 351.5,24.9 350.5,30.6C358.5,29.9 365.7,27.5 372.2,24.4C379.6,6.8 388.5,-9.1 401.7,-21.8C405.5,-20.9 405.9,-18.7 405.9,-16.3C405.8,-8.5 403.6,-1.3 400,5.4C394.8,15.1 387.7,23.1 378.2,28.9C376.8,29.7 375.8,30.6 375.4,32.3C372.7,44.9 370.2,57.6 370,70.6C369.9,76.1 370.4,81.5 371.5,86.9C371.7,87.9 372.1,89 371.4,90.6C367.9,81 367.2,71.6 367.4,62C367.5,52.4 369,42.9 370.3,33C364.9,35.2 359.7,36.4 354.2,37.6C359.9,51.1 361.7,65.1 361.2,79.5C361.1,82.5 360.7,85.4 359.9,88.3C359.2,90.8 357.8,92.7 355.4,93.8C354.4,93.8 353.5,93.8 352.5,93.8C345.1,88.7 342.9,80.9 341.8,72.7C340.5,62.2 340.8,51.6 342.4,41.1C342.5,40.4 342.5,39.7 342.5,38.9C337.2,38.9 332.2,38.9 326.6,38.9C321.2,43.4 315.5,48.2 309.7,52.8C294,65.5 277.2,76.6 258.7,84.9C251.1,88.3 243.3,91 234.9,91.6C234.2,91.4 233.5,91.5 233,92C232.4,92.1 231.9,92.1 231.3,92.2C231.3,91.8 231.3,91.4 231.3,91C243.2,89.3 253.9,84.3 264.2,78.3C282.8,67.4 299.3,53.8 315,39.1C315.2,38.9 315.4,38.5 315.7,38C309,37.1 302.5,36.4 296,35.3C277.4,32.3 259,28.5 241.6,21.1C237.8,19.5 234.2,17.4 230.7,15.2C226.1,12.2 222.8,7.9 219.9,3.3C220,1.1 220,-1.3 220,-3.7ZM335.6,18.8C329.2,10.5 315.8,0.9 303.2,-4.4C283.9,-12.5 263.6,-13.6 243.1,-12C238.6,-11.6 234.2,-10.5 230.1,-8.5C223.3,-5 222.1,1.3 227.3,6.9C231.3,11.3 236.4,14.1 241.8,16.3C267.8,26.6 295.3,29.3 322.2,31.7C327,27.2 331.3,23 335.6,18.8ZM349.2,38.9C346.8,51.4 346.8,64 348,76.7C348.4,80.5 349.2,84.2 351.1,87.5C352,89.2 352.9,91.2 355.4,91.3C357.6,89.9 358,87.6 358.1,85.4C359.3,69.2 356.6,53.6 349.2,38.9ZM402.4,-19C391.9,-7.8 384.8,5.5 379.2,19.7C391.9,9.8 400,-2.9 402.4,-19ZM370.3,-22.1C378.4,-31.7 386.9,-41 392.1,-52.8C381.1,-45.3 376.2,-33.3 370.3,-22.1ZM334.7,31.6C338.2,31.6 341.3,31.6 345,31.6C344.1,28.8 342.7,27.2 341.3,25.3" style="fill:rgb(35,135,221);fill-rule:nonzero;"/>
        <path d="M693.5,-0.8C682.8,-2.5 672,-4.3 661.3,-5.8C648,-7.6 634.7,-8.9 621.3,-9.6C602,-10.6 582.7,-11.8 563.3,-11.1C556.6,-10.9 549.9,-11.1 543.3,-11.1C544.2,-14.1 547.8,-17 545.8,-22.3C540.3,-19.1 538,-13.4 534.2,-9.6C505.3,-7.2 477,-3.1 449.6,5.8C476,0.7 502.5,-2 529.5,-2.3C529.1,-0.1 527.9,1.1 526.9,2.3C520.3,10.3 513,17.6 505,24.1C497.8,29.9 490.6,35.6 481.9,39.1C479.4,40.1 476.8,41.3 473.9,39.4C473.7,38.3 473.6,37 472.8,36.4C471.4,35.4 470,36.8 468.9,35.9C470.7,33.2 473.8,31.8 475.1,28.8C473.9,26.9 472.7,27.9 471.6,28.5C469,30.1 466.4,31.7 463.8,33.4C456.3,38.1 448.7,42.6 439.8,44.5C439.5,44.5 439.2,44.6 438.9,44.6C438.7,44 439,44 439.3,43.9C439.9,43.5 440.4,43.1 441,42.7C447.5,38.5 453.5,33.7 457.2,26.6C458.2,24.7 458.9,22.6 457.2,20.6C455.6,18.7 453.5,18.8 451.3,19.5C442.5,22.4 436.4,28.5 431.7,36.1C430.2,38.5 429.2,41.2 430.1,44.1C424.4,47.5 413.9,49.9 407.9,47.4C409.1,46.9 410.2,46.5 411.3,46C423.3,40.3 432.5,31.8 436.9,19C438,15.9 438.3,12.6 435.7,10C433.2,7.5 430.1,8 427,9C424.1,10 421.3,11 418.1,12.2C429.1,-6.9 440.8,-25.1 452.6,-43.4C450.9,-43.7 450.7,-42.7 450.2,-42.1C439.6,-28.5 429.5,-14.4 420,0C412.9,10.8 406,21.4 395.9,30C386.5,37.8 379.6,48 374.9,59.5C373.9,61.9 373.2,64.4 374.1,67C375.6,68 376.9,67.9 378.2,67C379.7,65.9 381.3,64.8 382.6,63.5C387.5,59 391.3,53.5 395.2,48.6C401.1,48.7 406.5,49.8 411.9,51C414.3,51.5 416.8,51.2 419.3,50.9C424.1,50.3 428.7,48.7 432.8,47C443.9,49.1 452.5,43.4 462.1,39.3C460.9,42.6 456.7,43.7 457.5,48.2C462.4,44 467,40.5 472.1,37.3C472.2,39 472.7,40.2 473.8,41C478,42.1 480.7,41.8 486.1,39.4C494.7,35.6 502.5,30.5 509.9,24.7C514,21.5 518,18 522.3,14.5C522.2,15.9 522.2,16.9 522.1,17.8C521.1,28.1 524.6,34.6 533.8,38.9C536.4,40.2 539.3,41.2 542.1,41.9C555.6,45.4 569.2,44.1 582.8,43.1C583.8,43 584.8,42.5 585.6,42.3C586.4,41.2 587,40.3 587,39C586.4,36.7 584.9,35.3 582.2,35.6C579.4,35.9 576.6,36.3 573.7,36.6C566.4,37.3 559,38.1 551.7,37.5C545.1,36.9 538.5,36 532.7,32.3C528.5,29.6 526.3,25.9 526.3,20.8C526.3,11.3 530.8,3.9 537.5,-2.4C538,-2.4 538.6,-2.5 539.2,-2.5C569.6,-2.9 599.8,-0.1 630,3.7C649.5,6.1 668.7,10.1 688,13.5C694.7,14.7 696.5,13.9 699.5,8.5C699.5,7.3 699.5,6.1 699.5,4.9C698.3,2.3 696.7,-0.2 693.5,-0.8ZM390.1,45.3L377.6,62.4C377.4,62.6 377,62.6 376.1,62.9C379.2,54.9 383.9,48.5 389.3,42.4C390.7,43.3 390.8,44.2 390.1,45.3ZM399,43.4C403.2,36.5 407.5,29.6 411.8,22.7C412.3,21.9 413.1,21.4 413.9,20.8C418.6,17.6 423.7,15.1 428.9,12.9C430.3,12.3 431.9,11.4 433.8,12.4C435.5,14.2 435,16.4 434.2,18.3C428.1,32.4 417.1,40.8 402.5,44.7C401.2,45.1 399.9,44.9 399,43.4ZM433.4,42.9C433.2,34.9 447.7,21.2 455.4,22.3C450.3,31.7 442.4,37.8 433.4,42.9Z" style="fill:rgb(35,135,221);fill-rule:nonzero;"/>
        <g transform="matrix(-0.999363,-0.0356853,-0.0201255,0.563611,1092.07,89.8711)">
            <path d="M693.5,-0.8C682.8,-2.5 672,-4.3 661.3,-5.8C648,-7.6 634.7,-8.9 621.3,-9.6C602,-10.6 582.7,-11.8 563.3,-11.1C556.6,-10.9 542.602,-11.045 534.2,-9.6C505.3,-7.2 477,-3.1 449.6,5.8C476,0.7 502.5,-2 529.5,-2.3C532.592,-2.334 538.6,-2.5 539.2,-2.5C569.6,-2.9 599.8,-0.1 630,3.7C649.5,6.1 668.7,10.1 688,13.5C694.7,14.7 696.5,13.9 699.5,8.5C699.5,7.3 699.5,6.1 699.5,4.9C698.3,2.3 696.7,-0.2 693.5,-0.8Z" style="fill:rgb(35,135,221);fill-rule:nonzero;"/>
        </g>
    </g>
</svg>
