<?xml version="1.0" encoding="UTF-8" standalone="no"?>
<!DOCTYPE svg PUBLIC "-//W3C//DTD SVG 1.1//EN" "http://www.w3.org/Graphics/SVG/1.1/DTD/svg11.dtd">
<svg width="100%" height="100%" viewBox="0 0 150 150" version="1.1" xmlns="http://www.w3.org/2000/svg" xmlns:xlink="http://www.w3.org/1999/xlink" xml:space="preserve" xmlns:serif="http://www.serif.com/" style="fill-rule:evenodd;clip-rule:evenodd;stroke-linejoin:round;stroke-miterlimit:1.41421;">
    <path d="M90.107,86.986C90.107,87.579 90.107,88.097 90.033,88.615C88.848,96.39 88.626,104.24 89.588,112.016C90.403,118.088 92.032,123.864 97.512,127.641L99.23,127.641L82.605,144.266C78.373,148.498 71.501,148.498 67.269,144.266L38.725,115.721C48.311,110.447 57.284,104.182 65.817,97.279C70.112,93.873 74.333,90.319 78.332,86.986L90.107,86.986ZM95.068,86.986C93.291,96.242 93.291,105.573 94.18,114.978C94.476,117.792 95.068,120.532 96.475,122.975C97.142,124.234 97.808,125.715 99.659,125.789C101.289,124.753 101.585,123.049 101.659,121.42C102.548,109.424 100.548,97.872 95.068,86.986ZM118.965,42.596L143.952,67.583C148.184,71.815 148.184,78.687 143.952,82.919L102.852,124.019C102.902,123.872 102.949,123.721 102.992,123.568C103.584,121.42 103.88,119.273 103.955,117.051C104.325,106.388 102.992,96.02 98.771,86.023C102.844,85.134 106.694,84.246 110.693,82.617C110.764,82.441 111.951,80.753 112.625,79.157C113.22,77.749 113.416,76.413 112.091,76.252L112.1,76.248C112.121,76.131 112.117,76.142 112.091,76.252C111.757,76.385 101.854,80.33 96.031,80.839C96.771,76.618 97.956,72.768 98.993,68.917C99.585,66.917 100.474,65.288 101.881,63.733C107.509,57.587 112.989,51.292 117.728,44.405C118.143,43.803 118.556,43.2 118.965,42.596ZM5.448,68.088C6.052,68.568 6.677,69.018 7.316,69.435C9.908,71.064 12.574,72.62 15.388,73.804C28.273,79.284 41.898,82.098 55.672,84.32C60.486,85.134 65.299,85.653 70.261,86.319C70.038,86.69 69.89,86.986 69.742,87.134C59.363,96.852 48.511,105.922 36.502,113.498L5.922,82.919C1.855,78.851 1.696,72.345 5.448,68.088ZM24.637,48.868C37.04,48.566 49.272,49.997 61.004,54.921C70.335,58.846 80.258,65.955 84.997,72.101C81.813,75.211 78.629,78.322 75.074,81.654C55.154,79.877 34.789,77.877 15.536,70.25C12.718,69.102 10.01,67.733 7.62,65.885L24.637,48.868ZM84.331,81.58C86.922,81.58 89.218,81.58 91.958,81.58C91.292,79.506 90.255,78.322 89.218,76.915L84.331,81.58ZM95.213,69.583L92.246,72.077L94.177,75.674L95.213,69.583ZM30.104,43.401L67.269,6.236C71.501,2.004 78.373,2.004 82.605,6.236L111,34.631C107.143,40.72 103.77,47.093 100.622,53.662C97.66,59.808 92.254,63.881 88.033,69.065C83.294,63.659 78.332,59.068 72.556,55.439C59.373,47.126 45.095,43.431 30.104,43.401ZM113.234,36.865L114.132,37.763C112.988,39.115 111.835,40.46 110.693,41.814C111.555,40.177 112.389,38.517 113.234,36.865Z" style="fill:rgb(0,156,222);"/>
</svg>
