<?xml version="1.0" encoding="UTF-8" standalone="no"?>
<!DOCTYPE svg PUBLIC "-//W3C//DTD SVG 1.1//EN" "http://www.w3.org/Graphics/SVG/1.1/DTD/svg11.dtd">
<svg width="100%" height="100%" viewBox="0 0 480 149" version="1.1" xmlns="http://www.w3.org/2000/svg" xmlns:xlink="http://www.w3.org/1999/xlink" xml:space="preserve" xmlns:serif="http://www.serif.com/" style="fill-rule:evenodd;clip-rule:evenodd;stroke-linejoin:round;stroke-miterlimit:2;">
    <g transform="matrix(1,0,0,1,-220,55)">
        <g transform="matrix(1,0,0,1,220,-55)">
            <path d="M106.6,93.9C101.2,98.4 95.5,103.2 89.7,107.8C74,120.5 57.2,131.6 38.7,139.9C31.1,143.3 23.3,146 14.9,146.6C14.2,146.4 13.5,146.5 13,147C12.4,147.1 11.9,147.1 11.3,147.2L11.3,146C23.2,144.3 33.9,139.3 44.2,133.3C62.8,122.4 79.3,108.8 95,94.1C95.2,93.9 95.4,93.5 95.7,93C89,92.1 82.5,91.4 76,90.3C57.4,87.3 39,83.5 21.6,76.1C17.8,74.5 14.2,72.4 10.7,70.2C6.1,67.2 2.8,62.9 -0.1,58.3C0,56.1 0,53.7 0,51.3C5.2,40 15.5,37.1 26.3,35.9C52.1,33 76.6,37.3 98.8,51.3C106.6,56.2 113.3,62.4 119.7,69.7C125.4,62.7 132.7,57.2 136.7,48.9C143.6,34.5 151.3,20.8 161.3,8.3C163.9,5.1 166.7,2.1 170.3,-0.1L173.9,-0.1C175.8,1.8 175.6,4.1 175,6.5C172.3,17.7 166.2,27.1 159.8,36.4C153.4,45.7 146,54.2 138.4,62.5C136.5,64.6 135.3,66.8 134.5,69.5C133.1,74.7 131.5,79.9 130.5,85.6C138.5,84.9 145.7,82.5 152.2,79.4C159.6,61.8 168.5,45.9 181.7,33.2C185.5,34.1 185.9,36.3 185.9,38.7C185.8,46.5 183.6,53.7 180,60.4C174.8,70.1 167.7,78.1 158.2,83.9C156.8,84.7 155.8,85.6 155.4,87.3C152.7,99.9 150.2,112.6 150,125.6C149.9,131.1 150.4,136.5 151.5,141.9C151.7,142.9 152.1,144 151.4,145.6C147.9,136 147.2,126.6 147.4,117C147.5,107.4 149,97.9 150.3,88C144.9,90.2 139.7,91.4 134.2,92.6C139.9,106.1 141.7,120.1 141.2,134.5C141.1,137.5 140.7,140.4 139.9,143.3C139.2,145.8 137.8,147.7 135.4,148.8L132.5,148.8C125.1,143.7 122.9,135.9 121.8,127.7C120.5,117.2 120.8,106.6 122.4,96.1C122.5,95.4 122.5,94.7 122.5,93.9L106.6,93.9ZM129.2,93.9C126.8,106.4 126.8,119 128,131.7C128.4,135.5 129.2,139.2 131.1,142.5C132,144.2 132.9,146.2 135.4,146.3C137.6,144.9 138,142.6 138.1,140.4C139.3,124.2 136.6,108.6 129.2,93.9ZM115.6,73.8C109.2,65.5 95.8,55.9 83.2,50.6C63.9,42.5 43.6,41.4 23.1,43C18.6,43.4 14.2,44.5 10.1,46.5C3.3,50 2.1,56.3 7.3,61.9C11.3,66.3 16.4,69.1 21.8,71.3C47.8,81.6 75.3,84.3 102.2,86.7C107,82.2 111.3,78 115.6,73.8ZM114.7,86.6L125,86.6C124.1,83.8 122.7,82.2 121.3,80.3L114.7,86.6ZM128.233,74.41L125.235,77.125C126.277,78.05 126.676,78.902 126.923,79.444C127.468,78.769 128.364,75.209 128.233,74.41ZM182.4,36C171.9,47.2 164.8,60.5 159.2,74.7C171.9,64.8 180,52.1 182.4,36ZM150.3,32.9C158.4,23.3 166.9,14 172.1,2.2C161.1,9.7 156.2,21.7 150.3,32.9Z" style="fill:rgb(35,135,221);fill-rule:nonzero;"/>
        </g>
        <path d="M693.5,-0.8C682.8,-2.5 672,-4.3 661.3,-5.8C648,-7.6 634.7,-8.9 621.3,-9.6C602,-10.6 582.7,-11.8 563.3,-11.1C556.6,-10.9 549.9,-11.1 543.3,-11.1C544.2,-14.1 547.8,-17 545.8,-22.3C540.3,-19.1 538,-13.4 534.2,-9.6C505.3,-7.2 477,-3.1 449.6,5.8C476,0.7 502.5,-2 529.5,-2.3C529.1,-0.1 527.9,1.1 526.9,2.3C520.3,10.3 513,17.6 505,24.1C497.8,29.9 490.6,35.6 481.9,39.1C479.4,40.1 476.8,41.3 473.9,39.4C473.7,38.3 473.6,37 472.8,36.4C471.4,35.4 470,36.8 468.9,35.9C470.7,33.2 473.8,31.8 475.1,28.8C473.9,26.9 472.7,27.9 471.6,28.5C469,30.1 466.4,31.7 463.8,33.4C456.3,38.1 448.7,42.6 439.8,44.5C439.5,44.5 439.2,44.6 438.9,44.6C438.7,44 439,44 439.3,43.9C439.9,43.5 440.4,43.1 441,42.7C447.5,38.5 453.5,33.7 457.2,26.6C458.2,24.7 458.9,22.6 457.2,20.6C455.6,18.7 453.5,18.8 451.3,19.5C442.5,22.4 436.4,28.5 431.7,36.1C430.2,38.5 429.2,41.2 430.1,44.1C424.4,47.5 413.9,49.9 407.9,47.4C409.1,46.9 410.2,46.5 411.3,46C423.3,40.3 432.5,31.8 436.9,19C438,15.9 438.3,12.6 435.7,10C433.2,7.5 430.1,8 427,9C424.1,10 421.3,11 418.1,12.2C429.1,-6.9 440.8,-25.1 452.6,-43.4C450.9,-43.7 450.7,-42.7 450.2,-42.1C439.6,-28.5 429.5,-14.4 420,0C412.9,10.8 406,21.4 395.9,30C386.5,37.8 379.6,48 374.9,59.5C373.9,61.9 373.2,64.4 374.1,67C375.6,68 376.9,67.9 378.2,67C379.7,65.9 381.3,64.8 382.6,63.5C387.5,59 391.3,53.5 395.2,48.6C401.1,48.7 406.5,49.8 411.9,51C414.3,51.5 416.8,51.2 419.3,50.9C424.1,50.3 428.7,48.7 432.8,47C443.9,49.1 452.5,43.4 462.1,39.3C460.9,42.6 456.7,43.7 457.5,48.2C462.4,44 467,40.5 472.1,37.3C472.2,39 472.7,40.2 473.8,41C478,42.1 480.7,41.8 486.1,39.4C494.7,35.6 502.5,30.5 509.9,24.7C514,21.5 518,18 522.3,14.5C522.2,15.9 522.2,16.9 522.1,17.8C521.1,28.1 524.6,34.6 533.8,38.9C536.4,40.2 539.3,41.2 542.1,41.9C555.6,45.4 569.2,44.1 582.8,43.1C583.8,43 584.8,42.5 585.6,42.3C586.4,41.2 587,40.3 587,39C586.4,36.7 584.9,35.3 582.2,35.6C579.4,35.9 576.6,36.3 573.7,36.6C566.4,37.3 559,38.1 551.7,37.5C545.1,36.9 538.5,36 532.7,32.3C528.5,29.6 526.3,25.9 526.3,20.8C526.3,11.3 530.8,3.9 537.5,-2.4C538,-2.4 538.6,-2.5 539.2,-2.5C569.6,-2.9 599.8,-0.1 630,3.7C649.5,6.1 668.7,10.1 688,13.5C694.7,14.7 696.5,13.9 699.5,8.5L699.5,4.9C698.3,2.3 696.7,-0.2 693.5,-0.8ZM390.1,45.3L377.6,62.4C377.4,62.6 377,62.6 376.1,62.9C379.2,54.9 383.9,48.5 389.3,42.4C390.7,43.3 390.8,44.2 390.1,45.3ZM399,43.4C403.2,36.5 407.5,29.6 411.8,22.7C412.3,21.9 413.1,21.4 413.9,20.8C418.6,17.6 423.7,15.1 428.9,12.9C430.3,12.3 431.9,11.4 433.8,12.4C435.5,14.2 435,16.4 434.2,18.3C428.1,32.4 417.1,40.8 402.5,44.7C401.2,45.1 399.9,44.9 399,43.4ZM433.4,42.9C433.2,34.9 447.7,21.2 455.4,22.3C450.3,31.7 442.4,37.8 433.4,42.9Z" style="fill:rgb(35,135,221);fill-rule:nonzero;"/>
        <g transform="matrix(-0.999363,-0.0356853,-0.0201255,0.563611,1092.07,89.8711)">
            <path d="M693.5,-0.8C682.8,-2.5 672,-4.3 661.3,-5.8C648,-7.6 634.7,-8.9 621.3,-9.6C602,-10.6 582.7,-11.8 563.3,-11.1C556.6,-10.9 542.602,-11.045 534.2,-9.6C505.3,-7.2 477,-3.1 449.6,5.8C476,0.7 502.5,-2 529.5,-2.3C532.592,-2.334 538.6,-2.5 539.2,-2.5C569.6,-2.9 599.8,-0.1 630,3.7C649.5,6.1 668.7,10.1 688,13.5C694.7,14.7 696.5,13.9 699.5,8.5L699.5,4.9C698.3,2.3 696.7,-0.2 693.5,-0.8Z" style="fill:rgb(35,135,221);fill-rule:nonzero;"/>
        </g>
    </g>
</svg>
