<?xml version="1.0" encoding="UTF-8" standalone="no"?>
<!DOCTYPE svg PUBLIC "-//W3C//DTD SVG 1.1//EN" "http://www.w3.org/Graphics/SVG/1.1/DTD/svg11.dtd">
<svg width="100%" height="100%" viewBox="0 0 974 239" version="1.1" xmlns="http://www.w3.org/2000/svg" xmlns:xlink="http://www.w3.org/1999/xlink" xml:space="preserve" xmlns:serif="http://www.serif.com/" style="fill-rule:evenodd;clip-rule:evenodd;stroke-linejoin:round;stroke-miterlimit:2;">
    <g id="path2987" transform="matrix(1,0,0,-1,-79,487.712)">
        <path d="M243.7,485.471C238.732,485.132 230.362,484.632 225.099,484.36C206.364,483.389 194.78,482.683 193.213,482.414C192.338,482.265 188.873,481.955 185.512,481.725C182.152,481.496 178.568,481.132 177.549,480.917C176.53,480.702 174.142,480.414 172.243,480.277C165.978,479.825 160.222,478.953 155.662,477.766C153.895,477.306 152.211,477.069 151.919,477.239C151.628,477.409 151.552,477.3 151.751,476.995C151.996,476.621 150.227,476.373 146.275,476.229C143.065,476.112 140.084,475.87 139.651,475.691C139.218,475.512 138.729,474.528 138.563,473.504C138.222,471.388 137.663,471.062 132.584,470.021C130.691,469.633 127.717,468.815 125.977,468.203C124.236,467.591 122.183,466.954 121.414,466.786C119.22,466.307 119.259,465.131 121.543,462.895C123.944,460.543 125.838,459.563 129.691,458.68C132.19,458.107 135.609,455.731 135.639,454.547C135.649,454.149 133.359,453.376 130.098,452.677C129.224,452.489 126.361,452.149 123.734,451.92C121.108,451.691 117.615,451.119 115.972,450.648C114.146,450.125 110.475,449.728 106.529,449.628C99.52,449.449 96.523,448.619 96.081,446.732C95.931,446.093 94.623,445.082 92.755,444.161C91.061,443.326 89.804,442.448 89.96,442.208C90.117,441.969 89.93,441.874 89.546,441.998C87.82,442.551 85.25,441.33 84.34,439.525C83.349,437.557 83.816,435.743 85.304,435.78C85.733,435.791 86.09,435.621 86.098,435.401C86.106,435.182 87.728,434.975 89.702,434.941C91.677,434.907 93.378,434.651 93.483,434.372C93.588,434.093 94.118,433.876 94.661,433.89C95.205,433.904 95.803,433.679 95.992,433.391C96.18,433.103 96.573,432.874 96.866,432.881C97.159,432.888 97.276,433.081 97.127,433.309C96.978,433.537 97.558,433.732 98.415,433.742C99.336,433.753 99.982,433.476 99.992,433.064C100.002,432.68 100.245,432.52 100.533,432.709C100.821,432.897 101.063,432.823 101.07,432.545C101.091,431.724 99.706,431.389 97.257,431.622C95.998,431.742 93.896,431.541 92.588,431.174C91.28,430.808 89.853,430.429 89.416,430.333C88.98,430.237 88.204,429.967 87.694,429.734C87.183,429.501 86.287,429.423 85.703,429.56C84.344,429.878 83.899,429.143 84.949,428.315C85.394,427.964 85.756,427.887 85.754,428.142C85.752,428.397 85.933,428.371 86.155,428.084C86.839,427.201 88.988,426.238 88.973,426.821C88.965,427.116 89.213,427.364 89.523,427.372C89.833,427.38 89.974,427.194 89.837,426.959C89.484,426.353 93.755,426.366 94.825,426.974C95.396,427.299 95.935,427.269 96.334,426.89C97.05,426.209 99.194,425.983 98.769,426.633C98.274,427.391 99.985,427.14 100.671,426.354C101.16,425.794 101.666,425.739 102.64,426.138C104.323,426.827 104.895,426.826 103.894,426.136C103.307,425.73 103.576,425.617 104.971,425.684C105.994,425.733 108.633,425.549 110.836,425.274C113.039,424.998 115.482,424.757 116.265,424.738C118.594,424.68 117.97,422.887 114.862,420.707C113.086,419.462 112.246,418.535 112.449,418.045C112.647,417.565 112.975,417.472 113.351,417.787C113.676,418.059 114.425,418.101 115.016,417.88C115.607,417.659 116.984,417.484 118.074,417.492C119.61,417.502 120.275,417.192 121.017,416.119C122.224,414.376 122.398,413.389 121.732,412.064C121.443,411.489 121.422,411.16 121.687,411.333C121.951,411.505 122.506,410.77 122.921,409.698C123.335,408.627 123.945,407.581 124.274,407.374C124.604,407.167 123.917,406.967 122.747,406.928C121.176,406.876 120.832,406.728 121.431,406.362C122.046,405.986 121.822,405.854 120.506,405.814C119.551,405.786 118.36,405.535 117.859,405.257C117.358,404.979 114.749,403.811 112.061,402.661C106.671,400.354 133.536,399.779 122.077,398.999C113.296,398.401 112.309,398.268 110.933,397.488C109.532,396.695 102.291,395.412 97.691,395.142C95.28,395 93.137,394.514 91.602,393.762C90.299,393.123 88.042,392.409 86.586,392.175C83.69,391.709 79.984,390.29 80,389.654C80.006,389.433 81.398,388.836 83.094,388.327C85.701,387.544 87.908,387.439 97.35,387.647C104.892,387.813 94.15,388.547 97.255,388.679C100.36,388.811 103.356,389.179 103.913,389.495C104.508,389.834 105.728,389.925 106.874,389.716C107.946,389.521 109.033,389.418 109.29,389.487C110.239,389.741 126.436,389.987 128.241,389.775C131.3,389.415 135.139,389.195 140.43,389.076C143.174,389.014 145.684,388.711 146.009,388.403C146.587,387.854 145.612,387.55 143.861,387.732C143.495,387.77 143.201,387.526 143.21,387.189C143.219,386.853 142.881,386.699 142.459,386.849C142.038,386.999 141.406,386.757 141.056,386.313C140.545,385.664 140.33,385.638 139.964,386.184C139.593,386.737 139.511,386.733 139.518,386.162C139.524,385.719 139.157,385.568 138.519,385.753C137.847,385.947 137.398,385.729 137.175,385.099C136.99,384.579 137.099,384.074 137.416,383.977C138.236,383.727 139.607,382.356 139.622,381.771C139.643,380.955 137.563,379.032 137.009,379.355C136.726,379.52 136.639,379.305 136.817,378.876C137.061,378.284 136.85,378.165 135.935,378.38C134.979,378.604 134.804,378.485 135.086,377.804C135.61,376.535 134.493,376.094 133.58,377.21C133.08,377.822 132.897,377.886 133.079,377.384C133.401,376.5 130.95,375.012 130.043,375.541C129.731,375.723 129.665,375.601 129.89,375.256C130.108,374.924 130.032,374.645 129.722,374.637C129.412,374.629 129.15,374.982 129.138,375.421C129.11,376.547 128.057,376.392 128.041,375.26C128.029,374.468 127.958,374.487 127.572,375.381C127.322,375.96 127.187,376.565 127.272,376.726C127.357,376.887 126.964,377.042 126.398,377.07C125.154,377.132 125.092,376.71 126.23,375.922C126.891,375.464 126.422,375.356 124.072,375.425C122.298,375.477 121.2,375.313 121.39,375.023C121.568,374.751 121.234,374.644 120.639,374.784C120.016,374.93 119.574,374.773 119.583,374.41C119.592,374.066 119.315,373.95 118.967,374.153C118.523,374.412 118.464,374.222 118.769,373.514C119.007,372.96 119.265,372.182 119.342,371.785C119.582,370.55 120.945,370.222 122.598,371.003C123.465,371.413 123.876,371.76 123.509,371.774C122.202,371.826 122.843,372.865 124.203,372.9C125.204,372.925 125.512,372.716 125.31,372.147C125.156,371.713 125.275,371.216 125.573,371.041C125.92,370.839 125.875,370.411 125.447,369.857C124.882,369.123 124.908,369.041 125.616,369.327C126.077,369.513 126.798,369.434 127.217,369.151C127.82,368.745 127.782,368.696 127.035,368.916C126.239,369.15 126.152,368.968 126.482,367.754C126.697,366.962 127.07,366.191 127.31,366.04C128.093,365.55 127.272,363.447 126.416,363.751C125.861,363.947 125.682,363.732 125.821,363.033C125.966,362.303 125.733,362.059 124.953,362.125C124.366,362.175 124.19,362.09 124.562,361.936C124.933,361.783 125.118,361.452 124.971,361.2C124.824,360.949 125.194,360.418 125.793,360.021C126.391,359.624 126.727,359.138 126.539,358.939C126.35,358.741 126.655,358.587 127.216,358.597C128.053,358.612 128.098,358.523 127.465,358.099C126.959,357.761 126.556,357.794 126.294,358.195C126.074,358.532 125.745,358.651 125.564,358.46C125.232,358.111 126.276,355.881 126.995,355.406C127.582,355.018 128.316,352.596 127.746,352.929C127.476,353.086 126.988,352.76 126.66,352.205C126.13,351.306 126.224,351.21 127.508,351.329C128.417,351.414 128.907,351.217 128.834,350.796C128.771,350.428 128.897,350.16 129.116,350.2C130.208,350.402 130.848,350.103 130.866,349.384C130.877,348.945 131.14,348.592 131.45,348.6C131.76,348.608 131.884,348.392 131.725,348.12C131.566,347.848 131.74,347.513 132.112,347.374C132.519,347.221 132.418,347.095 131.857,347.056C131.346,347.02 130.932,346.806 130.938,346.582C130.944,346.357 130.11,346.192 129.087,346.214C128.063,346.236 127.363,346.042 127.532,345.784C127.701,345.526 127.332,345.302 126.713,345.286C126.093,345.27 125.74,345.021 125.928,344.733C126.116,344.446 125.991,344.203 125.65,344.194C125.294,344.185 125.182,343.811 125.387,343.314C125.686,342.591 125.609,342.556 124.917,343.101C124.239,343.635 124.094,343.609 124.111,342.952C124.122,342.511 124.613,342.038 125.202,341.899C125.847,341.748 126.284,341.201 126.302,340.525C126.326,339.578 126.098,339.444 124.859,339.673C123.653,339.897 123.555,339.845 124.317,339.387C125.179,338.868 125.166,338.733 124.136,337.486C123.526,336.747 122.672,336.134 122.237,336.123C120.636,336.082 122.082,335.559 124.235,335.4C125.531,335.304 126.323,335.44 126.136,335.725C125.96,335.994 126.056,336.22 126.348,336.228C126.641,336.235 127.007,336.047 127.163,335.809C127.318,335.571 128.234,335.441 129.198,335.52C130.161,335.599 131.233,335.454 131.579,335.196C131.966,334.909 132.337,334.948 132.541,335.297C132.765,335.681 133.197,335.701 133.877,335.359C134.43,335.081 135.438,334.888 136.118,334.93C138.006,335.048 144.539,334.631 144.996,334.365C145.352,334.157 151.177,333.565 152.959,333.555C153.893,333.55 153.855,331.048 152.91,330.31C152.48,329.974 152.092,329.034 152.048,328.221C151.998,327.303 151.717,326.832 151.307,326.978C150.921,327.115 150.769,326.916 150.942,326.498C151.134,326.033 150.686,325.65 149.649,325.394C147.905,324.964 146.686,323.772 147.195,322.993C147.379,322.712 147.053,322.605 146.449,322.746C145.686,322.925 145.384,322.736 145.401,322.088C145.413,321.588 144.948,321.041 144.367,320.873C143.187,320.532 143.013,319.877 143.956,319.327C144.347,319.099 144.43,319.193 144.176,319.58C143.954,319.92 143.971,320.168 144.213,320.133C145.353,319.965 145.978,320.3 145.959,321.07C145.931,322.166 147.219,321.773 147.476,320.607C147.585,320.114 147.475,319.74 147.231,319.776C145.758,319.995 144.933,319.558 144.958,318.573C144.973,317.971 145.221,317.632 145.509,317.82C145.797,318.009 146.045,317.67 146.061,317.067C146.076,316.465 146.422,315.981 146.83,315.991C147.237,316.001 147.723,315.642 147.908,315.193C148.094,314.743 148.024,314.505 147.753,314.663C147.482,314.821 147.164,314.646 147.047,314.273C146.93,313.901 146.886,314.016 146.95,314.53C147.014,315.044 146.849,315.459 146.584,315.453C146.319,315.446 146.109,315.155 146.118,314.807C146.127,314.458 145.784,314.628 145.356,315.183C144.784,315.924 144.737,316.298 145.18,316.587C145.526,316.814 145.315,316.935 144.684,316.871C143.708,316.772 143.055,315.363 143.997,315.387C144.204,315.392 144.535,314.682 144.733,313.809C145.019,312.548 145.369,312.228 146.436,312.255C147.175,312.274 147.785,312.05 147.793,311.757C147.8,311.465 148.285,311.238 148.87,311.253C149.997,311.281 150.281,312.064 149.359,312.601C148.376,313.175 149.282,313.799 150.954,313.699C153.131,313.57 153.665,312.985 151.712,312.869C150.191,312.778 150.187,312.77 151.502,312.432L152.841,312.087L151.661,311.405C150.301,310.62 150.121,309.688 151.336,309.719C151.792,309.73 152.011,309.975 151.823,310.263C151.635,310.551 151.734,310.793 152.044,310.801C152.354,310.809 152.619,310.337 152.634,309.752C152.651,309.107 153.016,308.697 153.561,308.711C154.344,308.731 154.329,308.632 153.447,307.949C152.638,307.322 152.377,307.301 152.151,307.843C151.979,308.255 151.48,308.372 150.88,308.141C149.953,307.782 149.949,307.706 150.817,306.881C151.325,306.398 152.083,306.012 152.501,306.022C153.188,306.04 153.512,305.402 153.368,304.315C153.339,304.094 153.688,303.924 154.145,303.935C154.601,303.947 154.842,303.73 154.68,303.453C154.298,302.799 155.324,302.204 156.034,302.669C156.409,302.914 156.38,303.26 155.941,303.762C155.48,304.29 155.467,304.501 155.896,304.512C156.52,304.528 156.705,303.888 156.568,302.194C156.461,300.869 157.483,300.313 159.926,300.365C161.101,300.39 161.872,300.165 161.803,299.818C161.727,299.441 162.836,299.25 164.877,299.288C166.633,299.321 168.375,299.12 168.748,298.842C169.122,298.564 170.121,298.494 170.968,298.686C172.065,298.935 172.715,298.779 173.225,298.145C173.62,297.655 173.725,297.429 173.459,297.644C173.193,297.858 172.326,296.998 171.531,295.732C170.737,294.466 170.081,293.646 170.073,293.911C170.065,294.176 169.59,293.947 169.019,293.403C168.447,292.858 167.993,292.151 168.01,291.831C168.027,291.511 168.275,291.674 168.56,292.193C168.845,292.713 169.473,293.148 169.956,293.16C170.605,293.177 170.682,293.023 170.253,292.571C169.933,292.234 169.814,291.612 169.989,291.189C170.25,290.559 170.386,290.55 170.739,291.14C171.057,291.67 171.176,291.58 171.189,290.797C171.212,289.466 170.004,287.722 169.412,288.231C169.169,288.44 169.153,288.312 169.375,287.947C169.598,287.582 170,287.427 170.268,287.602C170.536,287.777 170.761,287.681 170.769,287.389C170.776,287.096 170.557,286.71 170.282,286.53C169.609,286.09 170.277,284.551 171.502,283.716C172.048,283.343 172.347,282.787 172.167,282.478C171.954,282.112 172.277,282.061 173.093,282.332C174.117,282.67 174.228,282.616 173.7,282.031C172.913,281.163 172.889,279.554 173.659,279.319C174.188,279.158 174.333,278.241 174.168,276.102C174.125,275.546 173.649,275.154 172.988,275.132C172.352,275.111 172.127,274.936 172.461,274.72C173.299,274.177 173.841,272.584 173.306,272.235C173.055,272.071 172.735,272.235 172.595,272.599C172.454,272.963 172.203,273.131 172.036,272.972C171.87,272.813 171.954,272.345 172.224,271.933C172.637,271.301 172.881,271.343 173.785,272.204C174.831,273.2 174.857,273.2 174.923,272.212C174.961,271.651 175.103,271.499 175.243,271.871C175.381,272.241 175.739,272.549 176.038,272.557C176.338,272.565 176.455,272.211 176.299,271.772C176.143,271.332 176.186,271.012 176.394,271.062C176.601,271.111 177.457,270.888 178.295,270.567C179.132,270.247 180.034,270.125 180.297,270.298C180.561,270.47 180.784,270.344 180.792,270.017C180.8,269.69 181.027,269.565 181.295,269.741C181.563,269.916 181.929,269.835 182.108,269.56C182.288,269.286 182.848,269.074 183.355,269.09C184.824,269.134 185.739,268.864 188.192,267.665C189.458,267.045 190.826,266.546 191.232,266.557C191.637,266.567 192.073,266.286 192.201,265.933C192.45,265.246 197.419,265.037 197.402,265.715C197.397,265.93 198.055,265.941 198.865,265.737C200.462,265.336 203.844,265.506 206.291,266.109C207.561,266.422 207.952,266.266 208.555,265.206C208.955,264.501 209.147,263.691 208.981,263.405C208.551,262.67 204.962,262.076 199.099,261.771C196.322,261.626 193.528,261.206 192.891,260.838C192.253,260.469 191.542,260.195 191.309,260.227C191.077,260.26 190.018,260.236 188.956,260.174C187.502,260.09 186.963,259.797 186.774,258.991C186.57,258.121 186.788,257.924 187.936,257.939C189.286,257.958 189.305,257.923 188.349,257.161C187.454,256.447 187.863,256.389 192.22,256.611C194.899,256.747 197.088,257.006 197.085,257.185C197.082,257.364 197.739,257.451 198.546,257.377C202.159,257.049 207.667,256.735 209.702,256.741C210.926,256.745 211.815,256.555 211.678,256.32C211.541,256.086 211.862,255.869 212.393,255.839C214.49,255.721 214.993,255.636 215.922,255.244C216.452,255.02 217.368,253.95 217.956,252.866C219.041,250.866 220.781,249.731 221.11,250.809C221.236,251.221 221.532,251.208 222.094,250.766C222.603,250.365 223.023,250.328 223.242,250.666C223.606,251.228 232.189,251.451 232.755,250.914C232.936,250.741 233.362,250.841 233.7,251.137C234.352,251.707 237.564,251.7 238.548,251.126C238.87,250.938 239.954,251.033 240.956,251.338C241.959,251.642 247.194,252.125 252.589,252.411C257.984,252.697 265.507,253.129 269.307,253.37C289.785,254.673 296.039,254.969 308.78,255.239C318.789,255.451 322.74,255.704 322.73,256.132C322.719,256.564 322.911,256.575 323.426,256.169C324.144,255.603 327.35,255.535 336.575,255.888C339.353,255.995 341.866,256.068 342.159,256.051C342.453,256.034 345.331,255.859 348.557,255.661C351.782,255.464 354.816,255.437 355.3,255.601C355.783,255.764 356.31,255.698 356.47,255.454C356.629,255.209 358.751,255.007 361.183,255.005C363.616,255.003 366.981,254.793 368.662,254.541C370.342,254.288 374.779,254.052 378.522,254.016C382.265,253.981 387.005,253.903 389.055,253.845C391.106,253.786 393.226,253.98 393.766,254.276C394.306,254.572 394.621,254.596 394.465,254.33C394.305,254.055 396.415,253.921 399.332,254.022C402.165,254.119 405.327,253.934 406.359,253.61C407.777,253.166 408.329,253.175 408.612,253.647C408.869,254.075 408.996,254.087 409.011,253.687C409.025,253.327 410.518,253.093 412.894,253.08C418.173,253.051 434.241,253.405 437.498,253.622C438.959,253.72 442.312,253.705 444.95,253.591C451.314,253.313 461.189,253.403 461.181,253.738C461.17,254.152 463.727,254.028 467.998,253.409C470.141,253.098 472.538,253.03 473.325,253.258C475.167,253.793 478.739,254.016 478.749,253.598C478.753,253.42 479.415,253.293 480.22,253.314C495.099,253.708 523.185,253.425 524.133,252.872C524.362,252.738 524.543,252.841 524.537,253.1C524.53,253.359 525.243,253.485 526.12,253.379C526.997,253.273 528.133,253.374 528.643,253.604C529.816,254.132 531.94,254.348 531.686,253.912C531.58,253.732 535.611,253.739 540.642,253.928C545.673,254.118 549.789,254.314 549.787,254.364C549.787,254.414 551.28,254.541 553.107,254.645C554.934,254.749 556.433,254.681 556.438,254.492C556.443,254.303 557.281,254.36 558.3,254.617C559.32,254.874 560.262,254.919 560.395,254.717C560.527,254.515 562.804,254.418 565.454,254.502C568.327,254.593 570.281,254.44 570.294,254.123C570.307,253.81 570.47,253.833 570.692,254.18C571.158,254.91 575.178,254.975 575.73,254.262C576,253.914 576.132,253.917 576.129,254.272C576.129,254.565 577.021,254.799 578.12,254.793C579.218,254.787 580.665,255.003 581.336,255.274C582.066,255.569 582.954,255.566 583.548,255.268C584.503,254.787 586.737,254.64 598.226,254.297C601.155,254.209 605.952,253.983 608.884,253.794C611.816,253.606 618.405,253.527 623.526,253.62C628.646,253.712 633.798,253.633 634.974,253.443C636.15,253.253 642.618,253.193 649.349,253.311C665.155,253.586 677.051,253.458 681.789,252.963C683.864,252.746 688.324,252.279 691.699,251.926C695.075,251.573 700.716,251.081 704.235,250.834C707.755,250.586 711.714,250.291 713.035,250.178C717.36,249.808 721.76,250.019 725.318,250.768C727.561,251.24 734.382,251.641 744.344,251.886C752.885,252.097 760.039,252.373 760.241,252.5C760.443,252.627 769.46,253.112 780.28,253.579C791.1,254.046 801.865,254.589 804.201,254.786C817.323,255.894 827.284,256.35 849.126,256.843C852.198,256.912 855.547,257.065 856.569,257.183C858.778,257.439 869.006,258.161 878.618,258.742C899.393,259.997 907.144,260.401 921.143,260.959C929.625,261.297 937.398,261.725 938.418,261.91C939.438,262.094 942.185,262.381 944.523,262.548C948.849,262.857 953.788,263.567 954.425,263.971C954.619,264.095 956.408,264.362 958.402,264.565C960.396,264.768 963.457,265.199 965.206,265.522C966.954,265.845 969.1,266.226 969.974,266.368C970.849,266.511 973.507,267.181 975.88,267.858C978.254,268.535 980.694,269.102 981.304,269.118C981.913,269.133 982.407,269.345 982.401,269.589C982.395,269.833 982.689,270.043 983.054,270.055C986.646,270.179 995.23,271.216 996.577,271.689C997.515,272.019 998.77,273.011 999.366,273.896C1000.54,275.642 1003.73,277.431 1006.67,277.996C1010.35,278.702 1016.72,279.457 1018.05,279.345C1018.8,279.282 1019.41,279.489 1019.4,279.804C1019.39,280.12 1019.55,280.22 1019.75,280.028C1019.96,279.835 1020.61,280.159 1021.2,280.747C1021.8,281.336 1023.88,282.702 1025.83,283.782C1028.67,285.357 1030.13,285.809 1033.15,286.057C1037.14,286.385 1037.84,286.859 1037.39,288.911C1037.11,290.22 1034.97,291.243 1032.63,291.184C1031.96,291.167 1031.26,291.388 1031.07,291.676C1030.88,291.964 1029.92,292.179 1028.93,292.154C1026.12,292.082 1021.72,293.054 1021.72,293.744C1021.72,294.879 1025.74,296.368 1029.7,296.697C1031.84,296.876 1036.83,297.245 1040.77,297.519C1048.74,298.071 1049.57,298.237 1049.97,299.349C1050.55,300.988 1043.1,306.325 1037.04,308.616C1035.08,309.356 1034.08,310.112 1033.4,311.382C1032.23,313.563 1032.74,314.627 1035.89,316.594C1037.12,317.357 1038.11,318.348 1038.1,318.795C1038.09,319.243 1038.43,319.977 1038.86,320.427C1040.07,321.703 1039.74,322.983 1037.94,323.987C1037.03,324.492 1035.24,325.85 1033.95,327.003C1031.99,328.759 1031.19,329.122 1029,329.23C1027.08,329.325 1026.14,329.663 1025.47,330.513C1024.96,331.147 1024.66,331.856 1024.79,332.087C1024.93,332.318 1024.79,332.501 1024.49,332.493C1024.19,332.485 1023.66,333.011 1023.3,333.66C1022.94,334.31 1022.83,334.678 1023.05,334.478C1023.62,333.98 1025.05,335.562 1024.62,336.212C1024.42,336.515 1024.69,336.631 1025.25,336.49C1025.78,336.355 1025.25,336.697 1024.06,337.25C1022.87,337.802 1021.14,338.241 1020.21,338.225C1019.28,338.209 1017.89,338.414 1017.14,338.68C1016.12,339.036 1015.76,338.991 1015.76,338.512C1015.76,338.153 1015.51,338.263 1015.21,338.757C1014.16,340.452 1015.12,342.336 1017.75,343.755C1019.12,344.491 1020.59,345.671 1021.03,346.377C1021.46,347.083 1022.76,347.967 1023.9,348.341C1028.16,349.737 1028.76,352.511 1025.01,353.484C1022.67,354.089 1021.52,355.781 1022.18,357.645C1022.52,358.615 1022.5,359.056 1022.12,359.046C1021.14,359.021 1020.16,360.323 1020.19,361.632C1020.21,362.927 1020.17,362.948 1015.66,363.869C1014.93,364.02 1013.59,364.752 1012.69,365.496C1011.8,366.24 1010.39,367.175 1009.58,367.573C1008.76,367.971 1008.09,368.642 1008.08,369.063C1008.05,370.051 1006.12,371.024 1003.82,371.209C1001.3,371.411 1000.26,372.038 1000.12,373.442C1000,374.612 1002.05,377.164 1003.12,377.192C1003.78,377.209 1006.73,380.343 1006.71,381.009C1006.69,381.919 1004.75,382.495 1001.03,382.7C999.004,382.812 996.142,383.128 994.671,383.401C992.235,383.855 983.544,385.107 981.563,385.29C980.735,385.367 980.325,387.256 981.132,387.277C981.372,387.283 981.318,387.729 981.011,388.268C980.705,388.808 980.617,389.42 980.816,389.63C981.483,390.331 981.07,397.083 980.314,397.832C979.919,398.223 978.494,398.589 977.146,398.645C974.971,398.736 973.515,399.535 973.991,400.376C974.084,400.539 973.817,400.972 973.4,401.339C972.982,401.706 972.645,401.829 972.65,401.613C972.655,401.397 972.371,401.494 972.018,401.829C971.55,402.274 971.191,402.276 970.688,401.837C970.185,401.398 969.564,401.403 968.386,401.856C965.671,402.9 966.514,404.524 970.162,405.277C974.241,406.119 975.149,406.502 974.508,407.111C974.334,407.276 970.547,407.396 966.093,407.377C956.62,407.336 955.526,407.742 954.655,411.627C954.373,412.883 953.552,414.794 952.831,415.875C951.64,417.659 950.698,419.988 950.61,421.363C950.592,421.656 949.77,421.951 948.784,422.02C947.554,422.107 946.899,422.464 946.698,423.159C946.537,423.716 946.197,424.035 945.941,423.868C945.686,423.701 945.471,423.808 945.464,424.106C945.457,424.403 944.351,425.254 943.008,425.995C939.198,428.1 938.63,429.881 941.407,431.018C942.705,431.55 942.758,431.952 941.823,434.18C941.137,435.814 942.861,436.914 948.562,438.48C954.08,439.996 955.617,440.994 954.001,442.012C952.997,442.644 945.789,441.84 934.454,439.831C929.319,438.92 927.149,439.28 925.957,441.24C924.768,443.194 923.542,443.75 920.005,443.94C917.073,444.097 914.314,445.477 914.28,446.804C914.259,447.618 916.602,448.446 919.316,448.585C921.357,448.689 923.752,450.152 922.558,450.564C922.183,450.694 921.513,451.145 921.069,451.568C920.624,451.991 920.264,452.193 920.268,452.019C920.285,451.375 917.008,453.311 916.344,454.337C915.517,455.615 912.719,457.334 911.616,457.242C908.877,457.011 905.231,457.279 905.22,457.711C905.198,458.535 907.944,460.968 908.518,460.633C908.807,460.464 908.876,460.582 908.672,460.895C908.467,461.207 908.544,461.622 908.841,461.816C909.138,462.011 909.231,462.399 909.048,462.68C908.864,462.961 909.003,463.557 909.356,464.004C910.358,465.277 909.337,465.76 905.268,465.937C903.221,466.026 900.463,466.307 899.139,466.563C897.815,466.819 893.368,467.459 889.256,467.986C885.144,468.513 880.436,469.366 878.793,469.883C877.114,470.411 874.363,470.785 872.51,470.738C870.698,470.692 867.47,471.096 865.337,471.637C861.676,472.565 860.422,472.577 842.85,471.864C832.614,471.449 822.208,470.951 819.724,470.759C813.252,470.258 805.297,469.48 804.205,469.241C803.691,469.128 797.469,468.724 790.379,468.344C780.241,467.8 775.95,467.791 770.286,468.3C766.325,468.657 759.046,468.991 754.11,469.043C749.175,469.094 744.261,469.221 743.192,469.324C739.499,469.678 726.835,470.199 719.403,470.301C715.303,470.358 707.874,470.526 702.893,470.675C697.913,470.825 687.85,470.941 680.531,470.933C673.213,470.926 666.505,470.981 665.625,471.055C664.745,471.129 658.73,471.208 652.259,471.231C645.788,471.254 639.798,471.339 638.948,471.42C637.312,471.577 633.282,471.751 619.02,472.281C607.826,472.697 599.42,473.25 592.479,474.028C589.461,474.366 586.077,474.619 584.959,474.591C583.841,474.562 582.227,474.746 581.372,474.999C580.517,475.252 578.304,475.546 576.454,475.651C574.605,475.756 570.76,476.257 567.91,476.765C565.06,477.272 561.288,477.779 559.529,477.89C557.77,478.001 554.529,478.279 552.328,478.508C550.126,478.736 546.886,479.007 545.127,479.109C543.368,479.211 539.323,479.597 536.14,479.967C532.956,480.337 528.395,480.732 526.004,480.844C523.613,480.957 520.281,481.194 518.599,481.371C516.916,481.547 512.602,481.665 509.011,481.633C505.42,481.6 500.682,481.746 498.481,481.957C494.136,482.374 484.89,482.641 477.707,482.556C475.219,482.526 472.102,482.676 470.779,482.889C469.456,483.102 460.352,483.2 450.547,483.106C440.742,483.012 432.204,483.027 431.572,483.141C430.94,483.254 425.787,483.39 420.121,483.444C414.454,483.497 408.619,483.586 407.153,483.641C405.688,483.696 400.297,483.78 395.173,483.829C390.048,483.877 383.817,484.021 381.325,484.148C378.834,484.276 376.558,484.31 376.267,484.224C375.976,484.138 372.261,484.239 368.011,484.447C363.761,484.655 357.887,484.897 354.957,484.983C352.027,485.07 348.79,485.217 347.763,485.311C346.736,485.405 342.661,485.553 338.708,485.64C334.755,485.727 331.398,485.87 331.248,485.957C331.098,486.044 327.98,486.194 324.318,486.29C320.656,486.385 317.179,486.547 316.591,486.65C315.514,486.838 277.818,486.568 261.511,486.256C256.683,486.164 248.668,485.811 243.7,485.472L243.7,485.471ZM135.75,416.871C136.015,416.861 135.803,416.352 135.278,415.741C134.461,414.791 133.789,414.64 130.607,414.691C128.563,414.724 126.8,415.004 126.689,415.314C126.398,416.125 130.064,417.125 132.87,416.999C134.189,416.939 135.485,416.882 135.75,416.871ZM149.041,388.138C149.044,388.009 148.807,387.897 148.515,387.89C148.222,387.883 147.976,388.13 147.969,388.439C147.961,388.749 148.197,388.861 148.494,388.688C148.792,388.514 149.037,388.267 149.041,388.138ZM122.317,371.577C122.32,371.462 121.954,371.216 121.505,371.03C121.036,370.837 120.82,370.92 120.999,371.227C121.298,371.74 122.306,372.008 122.317,371.577ZM128.666,354.774C128.154,354.239 128.091,354.298 128.361,355.064C128.547,355.594 128.837,355.896 129.005,355.737C129.173,355.577 129.02,355.144 128.666,354.774ZM133.084,348.499C132.572,347.964 132.509,348.024 132.779,348.789C132.965,349.319 133.255,349.622 133.423,349.462C133.591,349.302 133.438,348.869 133.084,348.499ZM129.106,345.346C128.933,345.049 128.685,344.803 128.556,344.8C128.427,344.797 128.316,345.033 128.308,345.326C128.301,345.618 128.548,345.864 128.858,345.872C129.168,345.88 129.28,345.643 129.106,345.346ZM150.863,320.52C150.483,320.356 150.024,320.364 149.842,320.536C149.661,320.708 149.972,320.842 150.533,320.833C151.154,320.823 151.283,320.701 150.863,320.52L150.863,320.52ZM150.799,319.124C150.002,318.432 148.741,316.327 148.756,315.715C148.761,315.529 149.122,315.689 149.559,316.071C150.593,316.974 151.22,316.369 150.369,315.288C149.621,314.339 148.241,315.041 148.207,316.388C148.196,316.808 148.001,317.03 147.773,316.881C147.545,316.732 147.311,317.071 147.254,317.635C147.185,318.322 147.491,318.669 148.182,318.686C148.749,318.701 149.206,318.952 149.199,319.244C149.192,319.537 149.724,319.782 150.383,319.79C151.41,319.801 151.469,319.707 150.799,319.124ZM147.636,317.905C147.639,317.776 147.885,317.529 148.182,317.355C148.48,317.182 148.716,317.294 148.708,317.604C148.7,317.913 148.455,318.161 148.162,318.153C147.87,318.146 147.633,318.034 147.636,317.905ZM157.325,307.076C157.375,306.419 157.291,306.178 157.141,306.542C156.99,306.906 156.654,307.065 156.394,306.895C156.133,306.725 156.054,306.961 156.216,307.419C156.647,308.633 157.222,308.455 157.325,307.076ZM154.6,306.572C155.196,305.66 154.549,305.447 153.797,306.308C153.365,306.803 153.317,307.107 153.669,307.116C153.98,307.124 154.399,306.879 154.6,306.572ZM172.331,288.753C172.334,288.638 171.981,288.397 171.546,288.217C171.112,288.038 170.75,288.122 170.743,288.406C170.736,288.689 171.089,288.93 171.528,288.941C171.966,288.953 172.328,288.868 172.331,288.753ZM82.549,428.29C82.556,428.015 82.805,427.648 83.102,427.474C83.399,427.301 83.633,427.532 83.621,427.988C83.609,428.444 83.361,428.811 83.068,428.804C82.775,428.797 82.542,428.565 82.549,428.29ZM123.793,376.317C123.804,375.861 124.05,375.642 124.338,375.83C124.626,376.018 124.855,376.397 124.848,376.673C124.841,376.948 124.596,377.167 124.304,377.16C124.011,377.153 123.781,376.773 123.793,376.317ZM124.611,367.442C125.521,365.797 125.613,365.75 125.486,367.003C125.425,367.612 125.057,368.223 124.669,368.361C124.107,368.56 124.095,368.375 124.611,367.442ZM128.275,348.008C127.83,347.717 128.087,347.473 129.07,347.252C130.852,346.853 131.193,347.104 129.902,347.866C129.368,348.18 128.636,348.244 128.275,348.008ZM139.939,312.3C140.12,312.127 140.58,312.12 140.96,312.284C141.38,312.464 141.25,312.587 140.63,312.597C140.069,312.606 139.758,312.472 139.939,312.3L139.939,312.3ZM141.589,310.213C141.77,310.04 142.23,310.033 142.61,310.197C143.03,310.377 142.9,310.5 142.28,310.51C141.719,310.519 141.408,310.385 141.589,310.213L141.589,310.213ZM151.235,303.639C151.226,303.077 151.36,302.766 151.532,302.948C151.705,303.129 151.712,303.588 151.548,303.968C151.368,304.388 151.245,304.259 151.235,303.639L151.235,303.639ZM170.564,274.546C170.092,274.224 170.032,274.013 170.413,274.018C170.761,274.023 171.188,274.269 171.362,274.566C171.753,275.237 171.569,275.232 170.564,274.546L170.564,274.546Z" style="fill:rgb(35,135,221);fill-rule:nonzero;"/>
    </g>
</svg>
